<svg width="22" height="23" viewBox="0 0 22 23" fill="none" xmlns="http://www.w3.org/2000/svg">
<path fill-rule="evenodd" clip-rule="evenodd" d="M6.465 0.110376C7.638 0.054126 8.012 0.041626 11 0.041626C13.988 0.041626 14.362 0.0551676 15.534 0.110376C16.706 0.165584 17.506 0.360376 18.206 0.642668C18.939 0.931209 19.604 1.38225 20.154 1.96558C20.714 2.53746 21.146 3.22913 21.422 3.99371C21.694 4.72288 21.88 5.55621 21.934 6.77496C21.988 7.99892 22 8.3885 22 11.5C22 14.6125 21.987 15.002 21.934 16.2239C21.881 17.4427 21.694 18.276 21.422 19.0052C21.146 19.7698 20.7133 20.4627 20.154 21.0354C19.604 21.6187 18.939 22.0687 18.206 22.3562C17.506 22.6395 16.706 22.8333 15.536 22.8895C14.362 22.9458 13.988 22.9583 11 22.9583C8.012 22.9583 7.638 22.9447 6.465 22.8895C5.295 22.8343 4.495 22.6395 3.795 22.3562C3.06092 22.0687 2.39582 21.6179 1.846 21.0354C1.28638 20.4632 0.853315 19.7707 0.577 19.0062C0.306 18.277 0.12 17.4437 0.066 16.225C0.012 15.001 0 14.6114 0 11.5C0 8.38746 0.013 7.99788 0.066 6.77704C0.119 5.55621 0.306 4.72288 0.577 3.99371C0.853723 3.22921 1.28712 2.53674 1.847 1.96454C2.39604 1.38173 3.06047 0.930629 3.794 0.642668C4.494 0.360376 5.294 0.166626 6.464 0.110376H6.465ZM15.445 2.17288C14.285 2.11767 13.937 2.10621 11 2.10621C8.063 2.10621 7.715 2.11767 6.555 2.17288C5.482 2.22392 4.9 2.41038 4.512 2.56767C3.999 2.776 3.632 3.02288 3.247 3.42392C2.88205 3.79376 2.60118 4.244 2.425 4.74163C2.274 5.14579 2.095 5.75204 2.046 6.86975C1.993 8.07808 1.982 8.44058 1.982 11.5C1.982 14.5593 1.993 14.9218 2.046 16.1302C2.095 17.2479 2.274 17.8541 2.425 18.2583C2.601 18.7552 2.882 19.2062 3.247 19.576C3.602 19.9562 4.035 20.2489 4.512 20.4323C4.9 20.5895 5.482 20.776 6.555 20.827C7.715 20.8822 8.062 20.8937 11 20.8937C13.938 20.8937 14.285 20.8822 15.445 20.827C16.518 20.776 17.1 20.5895 17.488 20.4323C18.001 20.2239 18.368 19.977 18.753 19.576C19.118 19.2062 19.399 18.7552 19.575 18.2583C19.726 17.8541 19.905 17.2479 19.954 16.1302C20.007 14.9218 20.018 14.5593 20.018 11.5C20.018 8.44058 20.007 8.07808 19.954 6.86975C19.905 5.75204 19.726 5.14579 19.575 4.74163C19.375 4.20725 19.138 3.82496 18.753 3.42392C18.3979 3.04378 17.9657 2.75122 17.488 2.56767C17.1 2.41038 16.518 2.22392 15.445 2.17288ZM9.595 15.0323C10.3797 15.3725 11.2534 15.4184 12.0669 15.1622C12.8805 14.9059 13.5834 14.3634 14.0556 13.6273C14.5278 12.8912 14.7401 12.0071 14.656 11.1261C14.572 10.2451 14.197 9.42181 13.595 8.79683C13.2112 8.39733 12.7472 8.09143 12.2363 7.90115C11.7255 7.71088 11.1804 7.64096 10.6405 7.69643C10.1006 7.75191 9.57915 7.93139 9.1138 8.22197C8.64845 8.51255 8.25074 8.90698 7.9493 9.37689C7.64786 9.84679 7.45019 10.3805 7.37052 10.9395C7.29084 11.4985 7.33115 12.069 7.48854 12.6099C7.64593 13.1507 7.91648 13.6485 8.28072 14.0674C8.64496 14.4862 9.09382 14.8158 9.595 15.0323ZM7.002 7.33538C7.52702 6.78847 8.15032 6.35465 8.8363 6.05867C9.52228 5.76269 10.2575 5.61035 11 5.61035C11.7425 5.61035 12.4777 5.76269 13.1637 6.05867C13.8497 6.35465 14.473 6.78847 14.998 7.33538C15.523 7.88228 15.9395 8.53154 16.2236 9.2461C16.5078 9.96066 16.654 10.7265 16.654 11.5C16.654 12.2734 16.5078 13.0393 16.2236 13.7538C15.9395 14.4684 15.523 15.1176 14.998 15.6645C13.9377 16.7691 12.4995 17.3896 11 17.3896C9.50046 17.3896 8.06234 16.7691 7.002 15.6645C5.94166 14.56 5.34597 13.062 5.34597 11.5C5.34597 9.93794 5.94166 8.43989 7.002 7.33538ZM17.908 6.48746C18.0381 6.35961 18.1423 6.20588 18.2143 6.03535C18.2863 5.86482 18.3248 5.68097 18.3274 5.49468C18.33 5.30839 18.2967 5.12345 18.2295 4.9508C18.1622 4.77816 18.0624 4.62132 17.936 4.48958C17.8095 4.35784 17.6589 4.25387 17.4932 4.18383C17.3275 4.11379 17.1499 4.0791 16.9711 4.08182C16.7922 4.08453 16.6157 4.1246 16.452 4.19964C16.2883 4.27469 16.1407 4.38318 16.018 4.51871C15.7793 4.78228 15.6486 5.13238 15.6537 5.49468C15.6588 5.85698 15.7992 6.20296 16.0452 6.45917C16.2911 6.71538 16.6233 6.86166 16.9711 6.86694C17.3189 6.87222 17.655 6.73609 17.908 6.48746Z" fill="#333333"/>
</svg>
