<svg width="24" height="25" viewBox="0 0 24 25" fill="none" xmlns="http://www.w3.org/2000/svg">
<path d="M7.19999 22.5L12 10.8334L7.19999 22.5ZM6.82239 15.8334C6.03378 14.9176 5.59836 13.7303 5.59999 12.5V11.6667C5.59999 10.1196 6.18999 8.63588 7.24019 7.54192C8.29039 6.44796 9.71478 5.83337 11.2 5.83337H12.8C14.2852 5.83337 15.7096 6.44796 16.7598 7.54192C17.81 8.63588 18.4 10.1196 18.4 11.6667V12.5C18.4 13.8261 17.8943 15.0979 16.9941 16.0356C16.0939 16.9733 14.873 17.5 13.6 17.5C12.9012 17.5 12.2202 17.2709 11.6533 16.8452C11.0865 16.4196 10.6625 15.8189 10.4416 15.1284L10.4 15L6.82239 15.8334ZM12 24.1667C10.5292 24.1667 9.07278 23.8649 7.71393 23.2786C6.35509 22.6923 5.12041 21.833 4.08039 20.7496C3.04038 19.6663 2.21539 18.3801 1.65254 16.9647C1.08968 15.5492 0.799988 14.0321 0.799988 12.5C0.799988 10.968 1.08968 9.45087 1.65254 8.0354C2.21539 6.61994 3.04038 5.33381 4.08039 4.25046C5.12041 3.16711 6.35509 2.30775 7.71393 1.72145C9.07278 1.13514 10.5292 0.833374 12 0.833374C14.9704 0.833374 17.8192 2.06254 19.9196 4.25046C22.02 6.43839 23.2 9.40585 23.2 12.5C23.2 15.5942 22.02 18.5617 19.9196 20.7496C17.8192 22.9375 14.9704 24.1667 12 24.1667Z" stroke="#333333" stroke-width="1.6"/>
</svg>
